HIERARCHY
ROOT hip
{
  OFFSET 0.00112043 5.09927 -9.65472
  CHANNELS 6 Xposition Yposition Zposition Zrotation Xrotation Yrotation
  JOINT abdomen
  {
    OFFSET 0 -1.186 -1.5018
    CHANNELS 3 Zrotation Xrotation Yrotation
    JOINT abdomen2
    {
      OFFSET 0 9.964 0.2134
      CHANNELS 3 Zrotation Xrotation Yrotation
      JOINT chest
      {
        OFFSET 0 13.134 -3.2573
        CHANNELS 3 Zrotation Xrotation Yrotation
        JOINT neck
        {
          OFFSET 0 20.686 -1.6905
          CHANNELS 3 Zrotation Xrotation Yrotation
          JOINT head
          {
            OFFSET 0 7.238 -0.1237
            CHANNELS 3 Zrotation Xrotation Yrotation
            End Site
            {
              OFFSET 0 0 0
            }
          }
        }
        JOINT lCollar
        {
          OFFSET 1.7069 20.075 5.0056
          CHANNELS 3 Zrotation Xrotation Yrotation
          JOINT lShldr
          {
            OFFSET 13.6458 -0.047 -4.849
            CHANNELS 3 Zrotation Xrotation Yrotation
            JOINT lForeArm
            {
              OFFSET 28.3255 -0.9759 2.2888
              CHANNELS 3 Zrotation Xrotation Yrotation
              JOINT lHand
              {
                OFFSET 22.1583 -0.53 10.8316
                CHANNELS 3 Zrotation Xrotation Yrotation
                JOINT lThumb1
                {
                  OFFSET 0.786 0.112 2.5817
                  CHANNELS 3 Zrotation Xrotation Yrotation
                  JOINT lThumb2
                  {
                    OFFSET 0.3601 -0.878 4.2331
                    CHANNELS 3 Zrotation Xrotation Yrotation
                    JOINT lThumb2_End
                    {
                      OFFSET 1.8127 -1.216 2.2227
                      CHANNELS 3 Zrotation Xrotation Yrotation
                      End Site
                      {
                        OFFSET 0.0181 -0.0122 0.0222
                      }
                    }
                  }
                }
                JOINT lCarpal1
                {
                  OFFSET 0.9571 1.114 1.7695
                  CHANNELS 3 Zrotation Xrotation Yrotation
                  JOINT lIndex1
                  {
                    OFFSET 4.1246 0.487 4.1451
                    CHANNELS 3 Zrotation Xrotation Yrotation
                    JOINT lIndex2
                    {
                      OFFSET 3.4052 -1.454 2.7682
                      CHANNELS 3 Zrotation Xrotation Yrotation
                      JOINT lIndex2_End
                      {
                        OFFSET 1.4531 -1.795 1.2713
                        CHANNELS 3 Zrotation Xrotation Yrotation
                        End Site
                        {
                          OFFSET 0.0145 -0.0179 0.0127
                        }
                      }
                    }
                  }
                  JOINT lMid1
                  {
                    OFFSET 5.6954 0.21 2.1184
                    CHANNELS 3 Zrotation Xrotation Yrotation
                    JOINT lMid2
                    {
                      OFFSET 3.9766 -1.54 2.3863
                      CHANNELS 3 Zrotation Xrotation Yrotation
                      JOINT lMid2_End
                      {
                        OFFSET 1.4042 -1.926 1.125
                        CHANNELS 3 Zrotation Xrotation Yrotation
                        End Site
                        {
                          OFFSET 0.014 -0.0193 0.0113
                        }
                      }
                    }
                  }
                }
                JOINT lCarpal2
                {
                  OFFSET 2.0956 0.66 -0.3894
                  CHANNELS 3 Zrotation Xrotation Yrotation
                  JOINT lRing1
                  {
                    OFFSET 5.0395 -0.09 2.4971
                    CHANNELS 3 Zrotation Xrotation Yrotation
                    JOINT lRing2
                    {
                      OFFSET 3.7921 -1.552 1.4806
                      CHANNELS 3 Zrotation Xrotation Yrotation
                      JOINT lRing2_End
                      {
                        OFFSET 1.4655 -1.808 0.9609
                        CHANNELS 3 Zrotation Xrotation Yrotation
                        End Site
                        {
                          OFFSET 0.0147 -0.0181 0.0096
                        }
                      }
                    }
                  }
                  JOINT lPinky1
                  {
                    OFFSET 4.9141 -1.269 0.3591
                    CHANNELS 3 Zrotation Xrotation Yrotation
                    JOINT lPinky2
                    {
                      OFFSET 3.1477 -1.685 0.8462
                      CHANNELS 3 Zrotation Xrotation Yrotation
                      JOINT lPinky2_End
                      {
                        OFFSET 0.8055 -1.585 0.7955
                        CHANNELS 3 Zrotation Xrotation Yrotation
                        End Site
                        {
                          OFFSET 0.0081 -0.0158 0.008
                        }
                      }
                    }
                  }
                }
              }
            }
          }
        }
        JOINT rCollar
        {
          OFFSET -1.7069 20.075 5.0056
          CHANNELS 3 Zrotation Xrotation Yrotation
          JOINT rShldr
          {
            OFFSET -13.6458 -0.047 -4.849
            CHANNELS 3 Zrotation Xrotation Yrotation
            JOINT rForeArm
            {
              OFFSET -28.3255 -0.9759 2.2888
              CHANNELS 3 Zrotation Xrotation Yrotation
              JOINT rHand
              {
                OFFSET -22.1583 -0.53 10.8316
                CHANNELS 3 Zrotation Xrotation Yrotation
                JOINT rThumb1
                {
                  OFFSET -0.786 0.112 2.5817
                  CHANNELS 3 Zrotation Xrotation Yrotation
                  JOINT rThumb2
                  {
                    OFFSET -0.3601 -0.878 4.2331
                    CHANNELS 3 Zrotation Xrotation Yrotation
                    JOINT rThumb2_End
                    {
                      OFFSET -1.8127 -1.216 2.2227
                      CHANNELS 3 Zrotation Xrotation Yrotation
                      End Site
                      {
                        OFFSET -0.0181 -0.0122 0.0222
                      }
                    }
                  }
                }
                JOINT rCarpal1
                {
                  OFFSET -0.9571 1.114 1.7695
                  CHANNELS 3 Zrotation Xrotation Yrotation
                  JOINT rIndex1
                  {
                    OFFSET -4.1246 0.487 4.1451
                    CHANNELS 3 Zrotation Xrotation Yrotation
                    JOINT rIndex2
                    {
                      OFFSET -3.4052 -1.454 2.7682
                      CHANNELS 3 Zrotation Xrotation Yrotation
                      JOINT rIndex2_End
                      {
                        OFFSET -1.4531 -1.795 1.2713
                        CHANNELS 3 Zrotation Xrotation Yrotation
                        End Site
                        {
                          OFFSET -0.0145 -0.018 0.0127
                        }
                      }
                    }
                  }
                  JOINT rMid1
                  {
                    OFFSET -5.6954 0.21 2.1184
                    CHANNELS 3 Zrotation Xrotation Yrotation
                    JOINT rMid2
                    {
                      OFFSET -3.9766 -1.54 2.3863
                      CHANNELS 3 Zrotation Xrotation Yrotation
                      JOINT rMid2_End
                      {
                        OFFSET -1.4042 -1.926 1.125
                        CHANNELS 3 Zrotation Xrotation Yrotation
                        End Site
                        {
                          OFFSET -0.014 -0.0193 0.0113
                        }
                      }
                    }
                  }
                }
                JOINT rCarpal2
                {
                  OFFSET -2.0956 0.66 -0.3894
                  CHANNELS 3 Zrotation Xrotation Yrotation
                  JOINT rRing1
                  {
                    OFFSET -5.0395 -0.09 2.4971
                    CHANNELS 3 Zrotation Xrotation Yrotation
                    JOINT rRing2
                    {
                      OFFSET -3.7921 -1.552 1.4806
                      CHANNELS 3 Zrotation Xrotation Yrotation
                      JOINT rRing2_End
                      {
                        OFFSET -1.4655 -1.808 0.9609
                        CHANNELS 3 Zrotation Xrotation Yrotation
                        End Site
                        {
                          OFFSET -0.0147 -0.0181 0.0096
                        }
                      }
                    }
                  }
                  JOINT rPinky1
                  {
                    OFFSET -4.9141 -1.269 0.3592
                    CHANNELS 3 Zrotation Xrotation Yrotation
                    JOINT rPinky2
                    {
                      OFFSET -3.1477 -1.685 0.8462
                      CHANNELS 3 Zrotation Xrotation Yrotation
                      JOINT rPinky2_End
                      {
                        OFFSET -0.8055 -1.585 0.7955
                        CHANNELS 3 Zrotation Xrotation Yrotation
                        End Site
                        {
                          OFFSET -0.0081 -0.0158 0.008
                        }
                      }
                    }
                  }
                }
              }
            }
          }
        }
      }
    }
  }
  JOINT lThigh
  {
    OFFSET 8.367 -8.2066 0.5982
    CHANNELS 3 Zrotation Xrotation Yrotation
    JOINT lShin
    {
      OFFSET 2.1923 -43.463 -0.4932
      CHANNELS 3 Zrotation Xrotation Yrotation
      JOINT lFoot
      {
        OFFSET 0.7333 -45.8593 -2.6451
        CHANNELS 3 Zrotation Xrotation Yrotation
        End Site
        {
          OFFSET 2.6618 -4.2699 12.3931
        }
      }
    }
  }
  JOINT rThigh
  {
    OFFSET -8.367 -8.2066 0.5982
    CHANNELS 3 Zrotation Xrotation Yrotation
    JOINT rShin
    {
      OFFSET -2.1923 -43.463 -0.4931
      CHANNELS 3 Zrotation Xrotation Yrotation
      JOINT rFoot
      {
        OFFSET -0.7333 -45.8593 -2.6451
        CHANNELS 3 Zrotation Xrotation Yrotation
        End Site
        {
          OFFSET -2.6618 -4.2699 12.3931
        }
      }
    }
  }
}
MOTION
Frames:	5
Frame Time:	0.0333333
0 91.7903 2.51682 0 0 -0 0 0 -0 0 0 -0 0 0 -0 0 0 -0 0 0 -0 0 0 -0 1.66051 0.0835086 5.75766 -0.0175111 0.895433 15.7816 7.95139e-016 -1.98785e-016 -0 5.46658e-016 -3.97569e-016 -0 5.96354e-016 0 -0 3.97569e-016 1.98785e-016 9.54166e-015 1.49089e-016 -3.97569e-016 -0 6.4605e-016 0 3.18055e-015 5.96354e-016 0 3.18055e-015 8.94531e-016 -1.98785e-016 6.36111e-015 6.4605e-016 0 3.18055e-015 5.96354e-016 0 3.18055e-015 8.94531e-016 -1.98785e-016 6.36111e-015 1.49089e-016 -3.97569e-016 -0 6.4605e-016 0 3.18055e-015 5.96354e-016 0 3.18055e-015 8.94531e-016 -1.98785e-016 6.36111e-015 6.4605e-016 0 3.18055e-015 5.96354e-016 0 3.18055e-015 8.94531e-016 -1.98785e-016 6.36111e-015 0 0 -0 -1.4496 0.0636048 -5.0245 -1.74811 1.20616 -16.8394 -1.19271e-015 1.98785e-016 -3.18055e-015 -3.97569e-016 1.98785e-016 -3.18055e-015 -2.98177e-016 1.98785e-016 -3.18055e-015 -2.98177e-016 3.97569e-016 -0 4.96962e-016 0 -6.36111e-015 -9.93923e-017 3.97569e-016 -0 -8.94531e-016 5.96354e-016 -0 -3.97569e-016 3.97569e-016 -0 -9.93923e-017 3.97569e-016 -0 -8.94531e-016 5.96354e-016 -0 -3.97569e-016 3.97569e-016 -0 4.96962e-016 0 -6.36111e-015 -9.93923e-017 3.97569e-016 -0 -8.94531e-016 5.96354e-016 -0 -3.97569e-016 3.97569e-016 -0 -9.93923e-017 3.97569e-016 -0 -8.94531e-016 5.96354e-016 -0 -3.97569e-016 3.97569e-016 -0 -4.66111 -0.998717 0.12318 0.00986924 1.54847 0.176523 4.65186 -0.572283 -0.254274 4.66111 -0.998765 -0.123176 -0.00986867 1.54869 -0.176537 -4.65186 -0.572453 0.25427 
-7.09966 50.1041 -11.8531 -0 -43.7892 -0 -2.92225 6.38249 -1.59008 -5.71823 12.8361 -2.87556 -5.71824 12.8361 -2.87556 -13.2443 -0.34275 3.68652 -0.648704 -0.943058 14.2287 -13.8149 5.22609 -3.18736 -17.198 -36.6087 10.1056 -0.243983 31.0688 8.26589 39.2542 -1.23834 -9.70423 8.94531e-016 3.97569e-016 3.18055e-015 -5.96354e-016 3.97569e-016 3.18055e-015 -3.97569e-016 3.97569e-016 1.59028e-015 6.95746e-016 0 -0 -3.97569e-016 3.97569e-016 9.54166e-015 -3.97569e-016 7.95139e-016 3.18055e-015 -4.41391e-032 7.95139e-016 3.18055e-015 -3.97569e-016 3.97569e-016 9.54166e-015 -3.97569e-016 7.95139e-016 3.18055e-015 -4.41391e-032 7.95139e-016 3.18055e-015 6.95746e-016 0 -0 -3.97569e-016 3.97569e-016 9.54166e-015 -3.97569e-016 7.95139e-016 3.18055e-015 -4.41391e-032 7.95139e-016 3.18055e-015 -3.97569e-016 3.97569e-016 9.54166e-015 -3.97569e-016 7.95139e-016 3.18055e-015 -4.41391e-032 7.95139e-016 3.18055e-015 16.3335 -18.3977 -13.9503 16.1676 26.2623 -12.428 -40.8892 -3.40661 3.60226 -2.65438 3.19372 4.51568 1.98785e-015 -7.95139e-016 9.54166e-015 -1.19271e-015 0 3.18055e-015 -1.19271e-015 0 3.18055e-015 2.38542e-015 -7.95139e-016 6.36111e-015 -1.19271e-015 -3.18055e-015 9.54166e-015 -7.95139e-016 0 3.18055e-015 -1.59028e-015 7.95139e-016 6.36111e-015 -1.19271e-015 -3.18055e-015 9.54166e-015 -7.95139e-016 0 3.18055e-015 -1.59028e-015 7.95139e-016 6.36111e-015 2.38542e-015 -7.95139e-016 6.36111e-015 -1.19271e-015 -3.18055e-015 9.54166e-015 -7.95139e-016 0 3.18055e-015 -1.59028e-015 7.95139e-016 6.36111e-015 -1.19271e-015 -3.18055e-015 9.54166e-015 -7.95139e-016 0 3.18055e-015 -1.59028e-015 7.95139e-016 6.36111e-015 -11.5542 -42.3302 5.88928 4.12016 38.1305 -4.00386 3.05742 26.5345 -12.2106 -24.9025 -22.1754 -26.1462 -5.19757 48.8218 2.99639 -21.8382 17.3871 33.1131 
-14.1259 7.53928 -19.9385 -0 -82.5084 -0 -5.2128 11.7259 -3.67882 -9.95813 23.7241 -6.43988 -9.95813 23.7241 -6.43987 -24.9179 -0.642642 6.94654 -0.845938 -1.6361 26.8181 -25.5543 9.81381 -6.05501 -23.1555 -68.3932 22.9643 10.9672 55.6286 -7.74407 77.0976 0.408016 -12.1606 -1.76556e-031 -1.59028e-015 -6.36111e-015 -8.82781e-032 -1.59028e-015 -3.18055e-015 -8.82781e-032 -1.59028e-015 -3.18055e-015 -1.76556e-031 -1.59028e-015 -6.36111e-015 1.59028e-015 -1.59028e-015 3.18055e-015 3.18055e-015 -1.59028e-015 -3.18055e-015 3.18055e-015 1.59028e-015 3.18055e-015 1.59028e-015 -1.59028e-015 3.18055e-015 3.18055e-015 -1.59028e-015 -3.18055e-015 3.18055e-015 1.59028e-015 3.18055e-015 -1.76556e-031 -1.59028e-015 -6.36111e-015 1.59028e-015 -1.59028e-015 3.18055e-015 3.18055e-015 -1.59028e-015 -3.18055e-015 3.18055e-015 1.59028e-015 3.18055e-015 1.59028e-015 -1.59028e-015 3.18055e-015 3.18055e-015 -1.59028e-015 -3.18055e-015 3.18055e-015 1.59028e-015 3.18055e-015 22.4076 -31.901 -29.7659 40.2044 48.1042 -24.108 -75.1946 -6.19283 20.2676 -5.46236 5.76459 8.58864 4.77083e-015 -7.95139e-016 2.38542e-015 4.57205e-015 7.95139e-016 3.18055e-015 3.37934e-015 1.59028e-015 1.59028e-015 3.08116e-015 -1.59028e-015 3.18055e-015 3.8763e-015 -7.95139e-016 7.95139e-015 2.38542e-015 1.59028e-015 1.59028e-015 4.47266e-015 1.59028e-015 7.95139e-016 3.8763e-015 -7.95139e-016 7.95139e-015 2.38542e-015 1.59028e-015 1.59028e-015 4.47266e-015 1.59028e-015 7.95139e-016 3.08116e-015 -1.59028e-015 3.18055e-015 3.8763e-015 -7.95139e-016 7.95139e-015 2.38542e-015 1.59028e-015 1.59028e-015 4.47266e-015 1.59028e-015 7.95139e-016 3.8763e-015 -7.95139e-016 7.95139e-015 2.38542e-015 1.59028e-015 1.59028e-015 4.47266e-015 1.59028e-015 7.95139e-016 7.71723 -76.7667 33.2712 22.1183 66.9463 -19.0344 15.2915 49.093 -31.2043 -66.0161 -33.362 -58.2484 -107.792 82.4298 102.264 -48.8131 23.1816 63.3511 
-16.9855 -8.27677 -21.0376 -180 -83.383 -180 -5.93524 13.57 -4.624 -11.1935 27.5213 -8.09444 -11.1935 27.5213 -8.09443 -29.1633 -0.75044 8.13453 -0.84044 -1.83232 31.408 -29.7947 11.5012 -7.04544 -7.66274 -78.663 45.0047 22.2312 62.9849 -20.3448 91.2722 2.36653 -12.3857 -5.29669e-031 -9.54166e-015 -3.18055e-015 4.77083e-015 -3.18055e-015 6.36111e-015 -1.59028e-015 -6.36111e-015 -1.27222e-014 -1.76556e-031 -3.18055e-015 -3.18055e-015 3.18055e-015 3.18055e-015 1.59028e-014 -1.41245e-030 -1.27222e-014 -6.36111e-015 -1.59028e-015 -6.36111e-015 -6.36111e-015 3.18055e-015 3.18055e-015 1.59028e-014 -1.41245e-030 -1.27222e-014 -6.36111e-015 -1.59028e-015 -6.36111e-015 -6.36111e-015 -1.76556e-031 -3.18055e-015 -3.18055e-015 3.18055e-015 3.18055e-015 1.59028e-014 -1.41245e-030 -1.27222e-014 -6.36111e-015 -1.59028e-015 -6.36111e-015 -6.36111e-015 3.18055e-015 3.18055e-015 1.59028e-014 -1.41245e-030 -1.27222e-014 -6.36111e-015 -1.59028e-015 -6.36111e-015 -6.36111e-015 22.3908 -35.5038 -36.8879 52.8958 55.2008 -31.6702 -87.6369 -6.74517 26.1904 -6.5893 6.63293 10.0937 8.48075e-007 2.19238e-007 2.47232e-008 1.00638e-008 -4.81183e-008 -1.72009e-006 8.48075e-007 2.19238e-007 2.47232e-008 -3.32188e-015 -9.93923e-017 9.93923e-017 8.48075e-007 2.19238e-007 2.47232e-008 1.00638e-008 -4.81183e-008 -1.72009e-006 8.48075e-007 2.19238e-007 2.47232e-008 8.48075e-007 2.19238e-007 2.47232e-008 1.00638e-008 -4.81183e-008 -1.72009e-006 8.48075e-007 2.19238e-007 2.47232e-008 -3.32188e-015 -9.93923e-017 9.93923e-017 8.48075e-007 2.19238e-007 2.47232e-008 1.00638e-008 -4.81183e-008 -1.72009e-006 8.48075e-007 2.19238e-007 2.47232e-008 8.48075e-007 2.19238e-007 2.47232e-008 1.00638e-008 -4.81183e-008 -1.72009e-006 8.48075e-007 2.19238e-007 2.47232e-008 75.9331 -81.6983 103.803 44.0777 75.1851 -39.3981 25.6346 55.5192 -43.1319 -84.48 -33.8017 -72.835 -157.496 69.624 149.161 -59.3523 21.9165 74.0846 
-16.1 -3.51153 -20.8099 -180 -87.6514 -180 -5.72771 12.9848 -4.3175 -10.8518 26.3156 -7.55148 -10.8518 26.3156 -7.55149 -27.8794 -0.71794 7.77513 -0.846059 -1.77674 30.0192 -28.6802 11.0568 -6.5781 -15.6578 -75.8213 35.0456 18.1375 60.9308 -15.8698 86.9717 1.68668 -12.3227 3.18055e-015 0 3.18055e-015 2.0534e-006 2.28696e-007 3.90505e-006 -2.14745e-006 9.76263e-007 -5.71739e-008 3.18055e-015 0 3.18055e-015 4.77083e-015 -3.18055e-015 9.54166e-015 2.0534e-006 2.28696e-007 3.90505e-006 -2.14745e-006 9.76263e-007 -5.71739e-008 4.77083e-015 -3.18055e-015 9.54166e-015 2.0534e-006 2.28696e-007 3.90505e-006 -2.14745e-006 9.76263e-007 -5.71739e-008 3.18055e-015 0 3.18055e-015 4.77083e-015 -3.18055e-015 9.54166e-015 2.0534e-006 2.28696e-007 3.90505e-006 -2.14745e-006 9.76263e-007 -5.71739e-008 4.77083e-015 -3.18055e-015 9.54166e-015 2.0534e-006 2.28696e-007 3.90505e-006 -2.14745e-006 9.76263e-007 -5.71739e-008 22.4708 -34.4532 -34.79 48.7214 53.1352 -29.0812 -83.8764 -6.60666 24.4009 -6.24264 6.37434 9.63713 -4.22417e-016 -3.97569e-016 -3.97569e-016 1.68766e-006 4.69246e-007 6.97879e-008 -1.85118e-015 -3.97569e-016 -3.97569e-016 -2.00027e-015 3.97569e-016 -7.95139e-016 -2.18663e-015 0 5.1684e-015 1.68766e-006 4.69246e-007 6.97879e-008 -3.60297e-016 0 -7.95139e-016 -2.18663e-015 0 5.1684e-015 1.68766e-006 4.69246e-007 6.97879e-008 -3.60297e-016 0 -7.95139e-016 -2.00027e-015 3.97569e-016 -7.95139e-016 -2.18663e-015 0 5.1684e-015 1.68766e-006 4.69246e-007 6.97879e-008 -3.60297e-016 0 -7.95139e-016 -2.18663e-015 0 5.1684e-015 1.68766e-006 4.69246e-007 6.97879e-008 -3.60297e-016 0 -7.95139e-016 48.7446 -81.9419 75.9501 35.3261 72.9928 -31.1552 22.0631 53.7536 -39.1243 -78.851 -33.7989 -68.4249 -150.917 74.1931 143.525 -56.339 22.3092 70.979 
